<svg xmlns="http://www.w3.org/2000/svg" xmlns:xlink="http://www.w3.org/1999/xlink" width="32" height="32" viewBox="0 0 32 32"><defs><clipPath id="a"><rect width="32" height="32" transform="translate(201 213)" fill="#fafdff"/></clipPath></defs><g transform="translate(-201 -213)" clip-path="url(#a)"><g transform="translate(205.371 216)"><path d="M22.476,10.059a.509.509,0,0,0-.4-.2h-1.69L18.722,5.851a.51.51,0,0,0,.467-.384l.49-1.943a.51.51,0,0,0-.494-.635H15.929a.51.51,0,0,0-.328.12L12.437,1.7,12.706.635A.51.51,0,0,0,12.211,0H8.956a.51.51,0,0,0-.494.635L8.729,1.7,5.565,3.008a.511.511,0,0,0-.328-.12H1.982a.51.51,0,0,0-.495.635l.491,1.943a.509.509,0,0,0,.466.384L.783,9.862H-.907a.51.51,0,0,0-.4.2A.509.509,0,0,0-1.4,10.5l.49,1.943a.51.51,0,0,0,.494.385h1.2l1.661,4.011H1.982a.51.51,0,0,0-.495.635l.49,1.943a.51.51,0,0,0,.495.385H4.747a.509.509,0,0,0,.451-.272l.878.364-2.53,5.494a.51.51,0,0,0,.463.723H8.544a.51.51,0,0,0,0-1.02H4.8l2.214-4.807,1.589.658L8.952,22.3a.51.51,0,0,0,.494.385H11.72a.51.51,0,0,0,.494-.385l.344-1.363,1.595-.661,2.209,4.809h-3.74a.51.51,0,0,0,0,1.02h4.535a.51.51,0,0,0,.463-.723l-2.525-5.5.872-.361a.509.509,0,0,0,.451.272h2.274a.51.51,0,0,0,.494-.385l.49-1.943a.51.51,0,0,0-.494-.635h-.462l1.661-4.011h1.2a.51.51,0,0,0,.494-.385l.49-1.943a.51.51,0,0,0-.092-.438ZM18.53,3.908l-.233.924h-1.48l-.233-.924ZM11.557,1.02l-.233.924H9.843L9.61,1.02ZM4.583,3.908l-.233.924H2.87l-.233-.924ZM-.252,10.882H1.694l-.233.924H-.019Zm3.122,7.9-.233-.924H4.583l-.233.924Zm8.454,2.889H9.843l-.233-.924h1.946Zm1.216-1.824a.51.51,0,0,0-.328-.12H8.955a.509.509,0,0,0-.328.12l-1.182-.49.309-.671,2.463-5.363a1.991,1.991,0,0,0,.726,0l2.463,5.333.321.7Zm-1.956-7.51a.99.99,0,1,1,.99-.99A.991.991,0,0,1,10.583,12.334ZM18.3,18.779h-1.48l-.233-.924H18.53Zm-2.368-1.943a.51.51,0,0,0-.495.635l.269,1.063-1.032.427-.337-.734-2.465-5.338a2.01,2.01,0,1,0-2.573,0L6.828,18.257l-.326.707-1.039-.43.268-1.063a.51.51,0,0,0-.494-.635H3.548L1.886,12.824a.509.509,0,0,0,.467-.384L2.843,10.5a.51.51,0,0,0-.495-.635H1.886l1.661-4.01h1.2a.51.51,0,0,0,.494-.385L5.585,4.1,9,2.691a.51.51,0,0,0,.451.272H11.72a.51.51,0,0,0,.451-.272L15.581,4.1l.344,1.363a.51.51,0,0,0,.494.385h1.2l1.661,4.01h-.462a.51.51,0,0,0-.494.635l.49,1.943a.509.509,0,0,0,.467.384l-1.662,4.012Zm5.256-5.03h-1.48l-.233-.924h1.946Zm0,0" transform="translate(1.417 0)" fill="#fafdff" fill-rule="evenodd"/><path d="M280.922,615a.68.68,0,1,0,.68.68A.681.681,0,0,0,280.922,615Zm0,0" transform="translate(-268.922 -590.252)" fill="#fafdff" fill-rule="evenodd"/></g></g></svg>