<svg xmlns="http://www.w3.org/2000/svg" xmlns:xlink="http://www.w3.org/1999/xlink" width="704" height="207" viewBox="0 0 704 207"><defs><clipPath id="a"><rect width="704" height="207" transform="translate(1031 3661)" fill="#fff" stroke="#707070" stroke-width="1"/></clipPath></defs><g transform="translate(-1031 -3661)" clip-path="url(#a)"><path d="M85.279,181.214c174.218-.665,371.665,8.122,514.791,45.487,81.282,21.219,150.387,73.41,174.247,83.014l-8.825,2.358-.205.93,13.761,1.087c.393.14.755.263,1.059.362.982,1.866,6.445,12.217,9.132,16.791,2.961,5.038,9.043,14.621,9.043,14.621l-40.79,8.588,1.277,2.034,47.014-.917s13.188,18.566,17.049,22.648c1.592,1.43,7.987,7.3,11.654,4.883l.041-.03.039-.031c3.348-2.842-.5-10.625-1.423-12.555-2.837-4.85-16.967-22.709-16.967-22.709L830.224,302.9l-1.595-1.8-19.669,36.752s-7.5-8.522-11.5-12.776-13.8-13.7-13.8-13.7l2.582-12.7-.95-.063-4.7,7.025c-9.647-48.527-22.757-119.932,53.979-123.528,80.109-3.755-16.357-144.031-16.357-144.031L381.916,0S-217.129,182.368,85.279,181.214Z" transform="translate(884 3479.162)" fill="#2a2e34" stroke="rgba(0,0,0,0)" stroke-miterlimit="10" stroke-width="1"/></g></svg>