<svg xmlns="http://www.w3.org/2000/svg" xmlns:xlink="http://www.w3.org/1999/xlink" width="32" height="32" viewBox="0 0 32 32"><defs><clipPath id="a"><rect width="32" height="32" fill="#fff" stroke="#707070" stroke-width="1"/></clipPath></defs><g clip-path="url(#a)"><g transform="translate(4.672 4.672)"><g transform="translate(4.803)"><path d="M103.2,0a.8.8,0,0,0-.8.8V2.4H104V.8A.8.8,0,0,0,103.2,0Z" transform="translate(-102.4)" fill="#bebebe"/></g><g transform="translate(16.01)"><path d="M342.134,0a.8.8,0,0,0-.8.8V2.4h1.6V.8A.8.8,0,0,0,342.134,0Z" transform="translate(-341.333)" fill="#bebebe"/></g><g transform="translate(0 2.402)"><path d="M20.013,51.2h-2.4v3.2a.8.8,0,1,1-1.6,0V51.2H6.4v3.2a.8.8,0,1,1-1.6,0V51.2H2.4A2.4,2.4,0,0,0,0,53.6v15.21a2.4,2.4,0,0,0,2.4,2.4H20.013a2.4,2.4,0,0,0,2.4-2.4V53.6A2.4,2.4,0,0,0,20.013,51.2Zm.8,17.611a.8.8,0,0,1-.8.8H2.4a.8.8,0,0,1-.8-.8V58.4H20.813Z" transform="translate(0 -51.2)" fill="#bebebe"/></g><g transform="translate(4.003 11.207)"><path d="M87.735,238.933h-1.6a.8.8,0,0,0,0,1.6h1.6a.8.8,0,0,0,0-1.6Z" transform="translate(-85.333 -238.933)" fill="#bebebe"/></g><g transform="translate(9.606 11.207)"><path d="M207.2,238.933h-1.6a.8.8,0,0,0,0,1.6h1.6a.8.8,0,0,0,0-1.6Z" transform="translate(-204.8 -238.933)" fill="#bebebe"/></g><g transform="translate(15.21 11.207)"><path d="M326.669,238.933h-1.6a.8.8,0,0,0,0,1.6h1.6a.8.8,0,0,0,0-1.6Z" transform="translate(-324.267 -238.933)" fill="#bebebe"/></g><g transform="translate(4.003 14.409)"><path d="M87.735,307.2h-1.6a.8.8,0,0,0,0,1.6h1.6a.8.8,0,0,0,0-1.6Z" transform="translate(-85.333 -307.2)" fill="#bebebe"/></g><g transform="translate(9.606 14.409)"><path d="M207.2,307.2h-1.6a.8.8,0,0,0,0,1.6h1.6a.8.8,0,1,0,0-1.6Z" transform="translate(-204.8 -307.2)" fill="#bebebe"/></g><g transform="translate(15.21 14.409)"><path d="M326.669,307.2h-1.6a.8.8,0,1,0,0,1.6h1.6a.8.8,0,1,0,0-1.6Z" transform="translate(-324.267 -307.2)" fill="#bebebe"/></g><g transform="translate(4.003 17.611)"><path d="M87.735,375.467h-1.6a.8.8,0,1,0,0,1.6h1.6a.8.8,0,1,0,0-1.6Z" transform="translate(-85.333 -375.467)" fill="#bebebe"/></g><g transform="translate(9.606 17.611)"><path d="M207.2,375.467h-1.6a.8.8,0,1,0,0,1.6h1.6a.8.8,0,1,0,0-1.6Z" transform="translate(-204.8 -375.467)" fill="#bebebe"/></g><g transform="translate(15.21 17.611)"><path d="M326.669,375.467h-1.6a.8.8,0,1,0,0,1.6h1.6a.8.8,0,1,0,0-1.6Z" transform="translate(-324.267 -375.467)" fill="#bebebe"/></g></g></g></svg>