<svg xmlns="http://www.w3.org/2000/svg" xmlns:xlink="http://www.w3.org/1999/xlink" width="32" height="32" viewBox="0 0 32 32"><defs><clipPath id="a"><rect width="32" height="32" fill="#c2c2c2"/></clipPath></defs><g clip-path="url(#a)"><g transform="translate(4.185 7)"><path d="M119.689,131.9a.209.209,0,0,0-.209.209v1.329h4.368v-1.329a.209.209,0,0,0-.209-.209Z" transform="translate(-113.86 -127.451)" fill="#c2c2c2"/><path d="M298.114,131.9a.209.209,0,0,0-.209.209v1.329h4.368v-1.329a.209.209,0,0,0-.209-.209h-3.95Z" transform="translate(-283.893 -127.451)" fill="#c2c2c2"/><path d="M53.107,43.04V41.725a1.625,1.625,0,0,1,1.639-1.608h4.026a1.625,1.625,0,0,1,1.639,1.608V43.04H61.5V41.725a1.625,1.625,0,0,1,1.639-1.608h4.026a1.625,1.625,0,0,1,1.639,1.608V43.04H69.94a3.3,3.3,0,0,1,.646.064V38.813a1.688,1.688,0,0,0-1.7-1.672H53.03a1.688,1.688,0,0,0-1.7,1.672V43.1a3.3,3.3,0,0,1,.646-.064Z" transform="translate(-48.956 -37.141)" fill="#c2c2c2"/><path d="M23.12,258.811H.88a.873.873,0,0,0-.88.867v5.681a.873.873,0,0,0,.88.867H23.12a.873.873,0,0,0,.88-.867v-5.681A.873.873,0,0,0,23.12,258.811Z" transform="translate(0 -249.857)" fill="#c2c2c2"/><path d="M46.631,195.206H28.7a1.8,1.8,0,0,0-1.792,1.538H48.422a1.8,1.8,0,0,0-1.792-1.538Z" transform="translate(-25.665 -188.538)" fill="#c2c2c2"/><path d="M18.762,449.7v.462a.7.7,0,0,0,1.4,0V449.7h-1.4Z" transform="translate(-17.896 -432.403)" fill="#c2c2c2"/><path d="M462.938,449.7v.462a.7.7,0,1,0,1.4,0V449.7h-1.4Z" transform="translate(-441.203 -432.402)" fill="#c2c2c2"/></g></g></svg>