<svg xmlns="http://www.w3.org/2000/svg" xmlns:xlink="http://www.w3.org/1999/xlink" width="32" height="32" viewBox="0 0 32 32"><defs><clipPath id="a"><rect width="32" height="32" transform="translate(109 209)" fill="#fafdff"/></clipPath></defs><g transform="translate(-109 -209)" clip-path="url(#a)"><g transform="translate(113 216)"><path d="M24,49.416a3.146,3.146,0,0,0-.3-1.335c-.02-.1-.043-.21-.071-.316L21.545,42.6l-.014-.046c-.729-2.172-1.767-4.182-4.4-4.182H7.07c-2.7,0-3.649,2.06-4.395,4.17L.494,47.719A3.188,3.188,0,0,0,0,49.416v1.608a3.126,3.126,0,0,0,.085.726A1.264,1.264,0,0,0,0,52.2v4.782a1.27,1.27,0,0,0,1.27,1.27H3.9a1.27,1.27,0,0,0,1.269-1.27V54.595h13.8v2.391a1.27,1.27,0,0,0,1.27,1.27H22.73A1.27,1.27,0,0,0,24,56.986V52.2a1.271,1.271,0,0,0-.085-.454A3.14,3.14,0,0,0,24,51.024V49.416h0ZM4.222,43.059C5.052,40.717,5.72,40,7.07,40H17.131c1.34,0,2.086.8,2.845,3.047L21.5,46.131a4.656,4.656,0,0,0-1.618-.286H4.12a4.678,4.678,0,0,0-1.467.234Zm1.307,8.576H2.749a.907.907,0,0,1,0-1.813h2.78a.907.907,0,0,1,0,1.813Zm9.82-.182H8.883a.574.574,0,0,1,0-1.148h6.466a.574.574,0,1,1,0,1.148Zm5.831.182H18.4a.907.907,0,0,1,0-1.813h2.78a.907.907,0,1,1,0,1.813Z" transform="translate(0 -38.37)" fill="#fafdff"/></g></g></svg>