<svg xmlns="http://www.w3.org/2000/svg" xmlns:xlink="http://www.w3.org/1999/xlink" width="48" height="48" viewBox="0 0 48 48"><defs><clipPath id="a"><rect width="48" height="48" transform="translate(1289 -29)" fill="#fff" stroke="#707070" stroke-width="1"/></clipPath></defs><g transform="translate(-1289 29)" clip-path="url(#a)"><path d="M24,8A16,16,0,1,0,40,24,16,16,0,0,0,24,8Zm0,28.9A12.9,12.9,0,1,1,36.9,24,12.9,12.9,0,0,1,24,36.9Zm6.919-16.465c0,4.326-4.672,4.393-4.672,5.991v.409a.774.774,0,0,1-.774.774H22.527a.774.774,0,0,1-.774-.774V26.28c0-2.306,1.748-3.228,3.07-3.969,1.133-.635,1.827-1.067,1.827-1.908,0-1.113-1.419-1.851-2.567-1.851-1.5,0-2.187.708-3.158,1.933a.775.775,0,0,1-1.075.137l-1.8-1.361a.776.776,0,0,1-.171-1.056,7.252,7.252,0,0,1,6.489-3.5C27.54,14.71,30.919,17.181,30.919,20.439ZM26.71,31.226A2.71,2.71,0,1,1,24,28.516,2.713,2.713,0,0,1,26.71,31.226Z" transform="translate(1289 -29.167)" fill="#fafdff"/></g></svg>