<svg xmlns="http://www.w3.org/2000/svg" xmlns:xlink="http://www.w3.org/1999/xlink" width="32" height="32" viewBox="0 0 32 32"><defs><clipPath id="a"><rect width="32" height="32" transform="translate(1097 210)" fill="#fff"/></clipPath></defs><g transform="translate(-1097 -210)" clip-path="url(#a)"><g transform="translate(1098.497 102.994)"><g transform="translate(0 116.673)"><path d="M179.7,192.229h.932l-.47-1.267Z" transform="translate(-167.118 -185.561)" fill="#fafdff"/><path d="M28.926,127.432l-2.643-9.542a1.66,1.66,0,0,0-1.6-1.217H4.321a1.66,1.66,0,0,0-1.6,1.217L.06,127.5a1.66,1.66,0,0,0,1.6,2.1H27.346a1.661,1.661,0,0,0,1.58-2.171ZM9.22,121.378v4.128a.379.379,0,0,1-.379.379H8.435a.379.379,0,0,1-.379-.379v-4.128H6.825A.379.379,0,0,1,6.446,121v-.229a.379.379,0,0,1,.379-.379h3.622a.379.379,0,0,1,.379.379V121a.379.379,0,0,1-.379.379Zm6.413,4.341a.379.379,0,0,1-.314.167h-.446a.379.379,0,0,1-.354-.243l-.38-.989H12.018l-.357.983a.379.379,0,0,1-.356.25h-.417a.379.379,0,0,1-.353-.516l1.845-4.736a.379.379,0,0,1,.353-.241h.69a.379.379,0,0,1,.352.238l1.9,4.736A.378.378,0,0,1,15.632,125.718Zm4.96-.033a.379.379,0,0,1-.334.2h-.49a.379.379,0,0,1-.319-.174l-1.072-1.672L17.3,125.711a.379.379,0,0,1-.319.174h-.488a.379.379,0,0,1-.317-.587l1.493-2.279-1.323-2.043a.379.379,0,0,1,.318-.585h.456a.379.379,0,0,1,.321.178L18.4,122.1l.936-1.531a.379.379,0,0,1,.323-.181H20.1a.379.379,0,0,1,.319.583l-1.336,2.086,1.486,2.236A.379.379,0,0,1,20.592,125.685Zm1.967-.179a.379.379,0,0,1-.379.379h-.406a.379.379,0,0,1-.379-.379V120.77a.379.379,0,0,1,.379-.379h.406a.379.379,0,0,1,.379.379Z" transform="translate(0 -116.673)" fill="#fafdff"/></g></g></g></svg>