<svg xmlns="http://www.w3.org/2000/svg" xmlns:xlink="http://www.w3.org/1999/xlink" width="32" height="32" viewBox="0 0 32 32"><defs><clipPath id="a"><rect width="32" height="32" fill="#bebebe" stroke="#707070" stroke-width="1"/></clipPath></defs><g clip-path="url(#a)"><g transform="translate(6 4.921)"><g transform="translate(3.895)"><g transform="translate(0)"><path d="M126.842,0a5.842,5.842,0,1,0,5.842,5.842A5.849,5.849,0,0,0,126.842,0Z" transform="translate(-121)" fill="#bebebe"/></g></g><g transform="translate(0 12.983)"><path d="M48.006,302.518A8.329,8.329,0,0,0,42.036,300h-2.6a8.329,8.329,0,0,0-5.971,2.518A8.514,8.514,0,0,0,31,308.525a.649.649,0,0,0,.649.649H49.825a.649.649,0,0,0,.649-.649A8.514,8.514,0,0,0,48.006,302.518Z" transform="translate(-31 -300)" fill="#bebebe"/></g></g></g></svg>